<svg width="158" height="25" viewBox="0 0 158 25" fill="none" xmlns="http://www.w3.org/2000/svg">
<path d="M47.4521 24.0436C51.4934 24.0436 53.6661 21.8657 53.6661 17.8584V15.1143L49.0599 14.6788V18.2505C49.0599 19.4701 48.5385 20.0363 47.4521 20.0363C46.3658 20.0363 45.8443 19.3829 45.8443 17.7713V6.31579C45.8443 4.70418 46.3658 4.09438 47.4521 4.09438C48.5385 4.09438 49.0599 4.61706 49.0599 5.88022V9.75681L53.6661 9.32124V6.31579C53.6661 2.26498 51.4934 0.174233 47.4521 0.130676C43.3674 0.130676 41.2816 2.43921 41.2816 6.79492V17.51C41.2816 21.9093 43.3674 24.1742 47.4521 24.1742" fill="white"/>
<path d="M94.2525 7.05611L96.0341 4.44268V0.304749H91.5149V4.66046H94.1221L93.7745 7.05611" fill="#EB5C0A"/>
<path d="M6.17052 24.0436C10.2118 24.0436 12.3845 21.8657 12.3845 17.8584V15.1143L7.77833 14.6788V18.2505C7.77833 19.4701 7.25687 20.0363 6.17052 20.0363C5.08416 20.0363 4.56271 19.3829 4.56271 17.7713V6.31579C4.56271 4.70418 5.08416 4.09438 6.17052 4.09438C7.25687 4.09438 7.77833 4.61706 7.77833 5.88022V9.75681L12.3845 9.32124V6.31579C12.3845 2.26498 10.2118 0.174233 6.17052 0.130676C2.08581 0.130676 0 2.43921 0 6.79492V17.51C0 21.9093 2.08581 24.1742 6.17052 24.1742" fill="white"/>
<path d="M21.901 17.6842C21.901 19.2523 21.3361 19.9057 20.1194 19.9057C18.9026 19.9057 18.3377 19.2523 18.3377 17.6842V6.35939C18.3377 4.79133 18.9026 4.13797 20.1194 4.13797C21.3361 4.13797 21.901 4.79133 21.901 6.35939V17.6842ZM20.1194 0.0871531C15.8608 0.0871531 13.7316 2.35213 13.7316 6.70784V17.4229C13.7316 21.7786 15.8608 24.0436 20.1194 24.0436C24.3779 24.0436 26.5071 21.7786 26.5071 17.4229V6.70784C26.5071 2.35213 24.3779 0.0435959 20.1194 0.0871531Z" fill="white"/>
<path d="M33.8944 7.23036L35.3284 16.9872H32.5473L33.9378 7.23036H33.8944ZM31.5913 0.348328L27.159 23.7385H31.5479L31.9824 20.6895H35.8498L36.3278 23.7385H40.6733L36.2409 0.348328H31.6348H31.5913Z" fill="white"/>
<path d="M62.6177 0.391968V10.2359H59.6193V0.391968H55.1001V23.7386H59.6193V14.3303H62.6177V23.7386H67.1369V0.391968H62.6177Z" fill="white"/>
<path d="M68.571 0.391968V23.7386H78.0875V19.6007H73.0902V13.8947H77.0445V10.0181H73.0902V4.48634H78.0875V0.391968H68.571Z" fill="white"/>
<path d="M79.2607 15.2886V18.4247C79.2607 21.7786 80.9989 24 85.1705 24C89.3421 24 90.9934 22.0399 90.9499 18.5118V16.8131C90.9499 13.5898 89.6897 12.1524 87.5605 10.7151L85.2574 9.19056C84.2145 8.5372 83.8234 8.10163 83.8234 7.09982V5.4882C83.8234 4.31216 84.2145 4.00726 85.0836 4.00726C85.9527 4.00726 86.3003 4.39927 86.3003 5.4882V8.27586H90.7327V5.57532C90.7327 2.22142 88.951 0 85.0401 0C81.1292 0 79.3042 2.00363 79.3042 5.40109V6.92559C79.3042 10.1053 80.6078 11.3684 82.9109 12.98L85.0401 14.461C85.9961 15.1143 86.4741 15.5935 86.4741 17.0309V18.4682C86.4741 19.6878 85.9961 20.0799 85.0836 20.0799C84.171 20.0799 83.6496 19.6007 83.6496 18.4682V15.3321H79.2173L79.2607 15.2886Z" fill="white"/>
<path d="M108.94 0.391968L106.941 17.1179L104.855 0.391968H100.206L104.508 23.7386H109.331L113.59 0.391968H108.94Z" fill="white"/>
<path d="M122.541 17.6842C122.541 19.2523 121.976 19.9057 120.76 19.9057C119.543 19.9057 118.978 19.2523 118.978 17.6842V6.35939C118.978 4.79133 119.543 4.13797 120.76 4.13797C121.976 4.13797 122.541 4.79133 122.541 6.35939V17.6842ZM120.803 0.0871531C116.545 0.0871531 114.415 2.35213 114.415 6.70784V17.4229C114.415 21.7786 116.545 24.0436 120.803 24.0436C125.062 24.0436 127.191 21.7786 127.191 17.4229V6.70784C127.191 2.35213 125.062 0.0435959 120.803 0.0871531Z" fill="white"/>
<path d="M133.144 0.391968H128.625V23.7386H133.144V0.391968Z" fill="white"/>
<path d="M148.44 0.391968V23.7386H158V19.6007H152.959V13.8947H156.914V10.0181H152.959V4.48634H158V0.391968H148.44Z" fill="white"/>
<path d="M140.792 24.0437C144.833 24.0437 147.006 21.8658 147.006 17.8586V15.1145L142.4 14.6789V18.2506C142.4 19.4702 141.878 20.0364 140.792 20.0364C139.706 20.0364 139.184 19.3831 139.184 17.7715V6.31592C139.184 4.7043 139.706 4.0945 140.792 4.0945C141.878 4.0945 142.4 4.61719 142.4 5.88034V9.75693L147.006 9.32136V6.31592C147.006 2.2651 144.833 0.174356 140.792 0.130798C136.707 0.130798 134.622 2.43933 134.622 6.79505V17.5101C134.622 21.9094 136.707 24.1744 140.792 24.1744" fill="white"/>
</svg>
