<svg width="184" height="32" viewBox="0 0 184 32" fill="none" xmlns="http://www.w3.org/2000/svg">
<path d="M52.5872 4.86623H44.3904V13.5906H51.4467V18.0184H44.3904V27.2246H52.5872V31.6523H39.4777V0.438477H52.5872V4.86623Z" fill="white"/>
<path d="M63.0589 0.0878296C64.2573 0.0878296 65.2941 0.255548 66.1724 0.590984C67.0476 0.92642 67.8374 1.43262 68.5387 2.1035C69.3285 2.83536 69.9262 3.76238 70.3348 4.88762C70.7435 6.01285 70.9783 7.27531 71.0362 8.67804H66.1266C66.0961 8.09256 66.0321 7.53756 65.9284 7.01306C65.8247 6.48856 65.6448 6.0342 65.3795 5.65302C65.1447 5.30234 64.8459 5.02484 64.4799 4.82053C64.114 4.61622 63.6383 4.51254 63.0559 4.51254C62.4734 4.51254 61.9977 4.62232 61.6318 4.84187C61.2659 5.06143 60.967 5.34503 60.7322 5.69571C60.2352 6.45502 59.9272 7.65344 59.8113 9.29098C59.6954 10.9285 59.6344 13.179 59.6344 16.0424C59.6344 18.9058 59.6924 21.1563 59.8113 22.7938C59.9272 24.4313 60.2352 25.6298 60.7322 26.3891C60.967 26.7398 61.2659 27.0234 61.6318 27.2429C61.9977 27.4625 62.4704 27.5722 63.0559 27.5722C63.6414 27.5722 64.114 27.4686 64.4799 27.2643C64.8459 27.0599 65.1447 26.7824 65.3795 26.4318C65.6418 26.0231 65.8247 25.5535 65.9284 25.029C66.0291 24.5015 66.0961 23.9465 66.1266 23.364H71.0362C70.9783 24.7668 70.7282 26.0445 70.2921 27.2002C69.853 28.3559 69.2401 29.2982 68.4503 30.027C67.7489 30.701 66.9744 31.195 66.1266 31.5182C65.2789 31.8384 64.2573 32 63.0589 32C61.5982 32 60.3846 31.7439 59.421 31.2316C58.4573 30.7192 57.6523 30.085 57.0089 29.3257C56.4813 28.7127 56.0727 28.0266 55.783 27.2643C55.4903 26.505 55.2646 25.5993 55.103 24.5472C54.9414 23.4952 54.8407 22.2754 54.795 20.8849C54.7523 19.4974 54.7279 17.8812 54.7279 16.0393C54.7279 14.1975 54.7493 12.5844 54.795 11.1969C54.8377 9.80938 54.9414 8.58961 55.103 7.53756C55.2646 6.48551 55.4903 5.57983 55.783 4.82053C56.0757 4.06122 56.4844 3.3751 57.0089 2.75912C57.6523 1.99982 58.4543 1.36249 59.421 0.853234C60.3846 0.340931 61.5982 0.0878296 63.0589 0.0878296Z" fill="white"/>
<path d="M90.7875 31.6523H86.4482L79.0838 13.1088V31.6523H74.1743V0.438477H78.5563L85.8779 18.982V0.438477H90.7875V31.6523Z" fill="white"/>
<path d="M99.6185 27.2246H107.815V31.6523H94.7089V0.438477H99.6185V27.2246Z" fill="white"/>
<path d="M8.37376 17.198L27.3442 10.227L27.3503 13.5387L8.35242 20.5218L8.37376 17.198Z" fill="white"/>
<path d="M28.7743 31.7865C27.954 31.7865 27.2862 31.1187 27.2862 30.2984C27.2862 29.4781 27.954 28.8103 28.7743 28.8103C29.5946 28.8103 30.2624 29.4781 30.2624 30.2984C30.2624 31.1187 29.5946 31.7865 28.7743 31.7865Z" fill="white"/>
<path d="M8.36769 13.9291L35.7698 3.70742V0.3927L8.38904 10.6083L8.36769 13.9291Z" fill="white"/>
<path d="M24.2276 25.7761L20.2756 24.3338L20.3335 27.6515L24.9595 29.3653L27.3411 26.9166L27.3441 16.7255L0 26.8495V30.1643L24.2429 21.1959L24.2276 25.7761Z" fill="white"/>
<path d="M154.015 31.4812V22.9482H157.699C158.332 22.9482 158.886 23.0635 159.361 23.294C159.836 23.5245 160.205 23.8565 160.469 24.2898C160.733 24.7231 160.865 25.2425 160.865 25.8481C160.865 26.4591 160.729 26.9744 160.457 27.3938C160.187 27.8133 159.808 28.1299 159.319 28.3438C158.833 28.5577 158.265 28.6646 157.615 28.6646H155.415V26.8647H157.149C157.421 26.8647 157.653 26.8314 157.844 26.7647C158.039 26.6952 158.188 26.5855 158.29 26.4355C158.396 26.2855 158.449 26.0897 158.449 25.8481C158.449 25.6036 158.396 25.405 158.29 25.2522C158.188 25.0967 158.039 24.9828 157.844 24.9106C157.653 24.8356 157.421 24.7981 157.149 24.7981H156.332V31.4812H154.015ZM159.015 27.5647L161.148 31.4812H158.632L156.549 27.5647H159.015Z" fill="#73B6BB"/>
<path d="M146.717 31.4812V22.9482H152.866V24.8148H149.033V26.2814H152.55V28.148H149.033V29.6146H152.85V31.4812H146.717Z" fill="#73B6BB"/>
<path d="M138.429 24.8148V22.9482H145.845V24.8148H143.278V31.4812H140.995V24.8148H138.429Z" fill="#73B6BB"/>
<path d="M137.566 22.9482V31.4812H135.633L132.55 26.998H132.5V31.4812H130.183V22.9482H132.15L135.183 27.4147H135.25V22.9482H137.566Z" fill="#73B6BB"/>
<path d="M122.884 31.4812V22.9482H129.034V24.8148H125.201V26.2814H128.718V28.148H125.201V29.6146H129.018V31.4812H122.884Z" fill="#73B6BB"/>
<path d="M121.834 26.1481H119.484C119.467 25.9536 119.423 25.7773 119.35 25.6189C119.281 25.4606 119.184 25.3245 119.059 25.2106C118.936 25.0939 118.788 25.0051 118.613 24.944C118.438 24.8801 118.239 24.8481 118.017 24.8481C117.628 24.8481 117.299 24.9426 117.03 25.1314C116.763 25.3203 116.56 25.5911 116.421 25.9439C116.285 26.2967 116.217 26.7203 116.217 27.2147C116.217 27.7369 116.287 28.1744 116.425 28.5271C116.567 28.8771 116.771 29.141 117.038 29.3188C117.305 29.4938 117.625 29.5813 118 29.5813C118.214 29.5813 118.406 29.5549 118.575 29.5021C118.745 29.4465 118.892 29.3674 119.017 29.2646C119.142 29.1618 119.243 29.0382 119.321 28.8938C119.402 28.7466 119.456 28.5813 119.484 28.398L121.834 28.4146C121.806 28.7757 121.704 29.1438 121.529 29.5188C121.354 29.891 121.106 30.2354 120.784 30.5521C120.464 30.8659 120.068 31.1187 119.596 31.3104C119.124 31.502 118.575 31.5978 117.95 31.5978C117.167 31.5978 116.464 31.4298 115.842 31.0937C115.223 30.7576 114.732 30.2632 114.371 29.6104C114.013 28.9577 113.834 28.1591 113.834 27.2147C113.834 26.2647 114.017 25.4648 114.384 24.8148C114.75 24.162 115.245 23.669 115.867 23.3357C116.489 22.9996 117.184 22.8315 117.95 22.8315C118.489 22.8315 118.985 22.9052 119.438 23.0524C119.891 23.1996 120.288 23.4149 120.629 23.6982C120.971 23.9787 121.246 24.3245 121.454 24.7356C121.663 25.1467 121.789 25.6175 121.834 26.1481Z" fill="#73B6BB"/>
<path d="M183.443 11.5323V20.0653H181.51L178.427 15.5821H178.377V20.0653H176.06V11.5323H178.027L181.06 15.9988H181.127V11.5323H183.443Z" fill="#73B6BB"/>
<path d="M174.989 15.7989C174.989 16.7488 174.804 17.5502 174.434 18.2029C174.065 18.8529 173.566 19.3459 172.939 19.682C172.311 20.0153 171.611 20.182 170.839 20.182C170.061 20.182 169.358 20.014 168.73 19.6779C168.105 19.339 167.608 18.8446 167.239 18.1946C166.872 17.5418 166.689 16.7433 166.689 15.7989C166.689 14.8489 166.872 14.0489 167.239 13.399C167.608 12.7462 168.105 12.2532 168.73 11.9199C169.358 11.5838 170.061 11.4157 170.839 11.4157C171.611 11.4157 172.311 11.5838 172.939 11.9199C173.566 12.2532 174.065 12.7462 174.434 13.399C174.804 14.0489 174.989 14.8489 174.989 15.7989ZM172.605 15.7989C172.605 15.2878 172.537 14.8572 172.401 14.5072C172.268 14.1545 172.069 13.8878 171.805 13.7073C171.544 13.524 171.222 13.4323 170.839 13.4323C170.455 13.4323 170.132 13.524 169.868 13.7073C169.607 13.8878 169.408 14.1545 169.272 14.5072C169.139 14.8572 169.072 15.2878 169.072 15.7989C169.072 16.31 169.139 16.7419 169.272 17.0946C169.408 17.4446 169.607 17.7113 169.868 17.8946C170.132 18.0752 170.455 18.1654 170.839 18.1654C171.222 18.1654 171.544 18.0752 171.805 17.8946C172.069 17.7113 172.268 17.4446 172.401 17.0946C172.537 16.7419 172.605 16.31 172.605 15.7989Z" fill="#73B6BB"/>
<path d="M165.624 11.5323V20.0653H163.308V11.5323H165.624Z" fill="#73B6BB"/>
<path d="M155.019 13.3989V11.5323H162.436V13.3989H159.869V20.0653H157.586V13.3989H155.019Z" fill="#73B6BB"/>
<path d="M149.208 20.0653H146.708L149.525 11.5323H152.692L155.508 20.0653H153.008L151.142 13.8822H151.075L149.208 20.0653ZM148.742 16.6987H153.442V18.432H148.742V16.6987Z" fill="#73B6BB"/>
<path d="M146.204 14.7322H143.854C143.838 14.5378 143.793 14.3614 143.721 14.2031C143.652 14.0448 143.554 13.9087 143.429 13.7948C143.307 13.6781 143.159 13.5892 142.984 13.5281C142.809 13.4642 142.61 13.4323 142.388 13.4323C141.999 13.4323 141.67 13.5267 141.4 13.7156C141.134 13.9045 140.931 14.1753 140.792 14.5281C140.656 14.8808 140.588 15.3044 140.588 15.7989C140.588 16.3211 140.657 16.7585 140.796 17.1113C140.938 17.4613 141.142 17.7252 141.409 17.9029C141.675 18.0779 141.996 18.1654 142.371 18.1654C142.585 18.1654 142.777 18.139 142.946 18.0863C143.116 18.0307 143.263 17.9515 143.388 17.8488C143.513 17.746 143.614 17.6224 143.692 17.478C143.772 17.3307 143.827 17.1655 143.854 16.9821L146.204 16.9988C146.176 17.3599 146.075 17.7279 145.9 18.1029C145.725 18.4751 145.477 18.8196 145.154 19.1362C144.835 19.4501 144.439 19.7029 143.967 19.8945C143.495 20.0862 142.946 20.182 142.321 20.182C141.538 20.182 140.835 20.014 140.213 19.6779C139.593 19.3418 139.103 18.8473 138.742 18.1946C138.384 17.5418 138.205 16.7433 138.205 15.7989C138.205 14.8489 138.388 14.0489 138.755 13.399C139.121 12.7462 139.616 12.2532 140.238 11.9199C140.86 11.5838 141.554 11.4157 142.321 11.4157C142.86 11.4157 143.356 11.4893 143.809 11.6365C144.261 11.7838 144.658 11.999 145 12.2823C145.342 12.5629 145.617 12.9087 145.825 13.3198C146.033 13.7309 146.16 14.2017 146.204 14.7322Z" fill="#73B6BB"/>
<path d="M134.82 11.5323H137.137V16.9987C137.137 17.6487 136.981 18.2112 136.67 18.6862C136.362 19.1584 135.931 19.5236 135.379 19.7819C134.826 20.0375 134.184 20.1653 133.454 20.1653C132.718 20.1653 132.073 20.0375 131.521 19.7819C130.968 19.5236 130.537 19.1584 130.229 18.6862C129.923 18.2112 129.771 17.6487 129.771 16.9987V11.5323H132.087V16.7987C132.087 17.0626 132.145 17.2987 132.262 17.507C132.379 17.7126 132.54 17.8737 132.745 17.9903C132.954 18.107 133.19 18.1653 133.454 18.1653C133.72 18.1653 133.957 18.107 134.162 17.9903C134.368 17.8737 134.529 17.7126 134.645 17.507C134.762 17.2987 134.82 17.0626 134.82 16.7987V11.5323Z" fill="#73B6BB"/>
<path d="M124.449 20.0653H121.166V11.5323H124.416C125.293 11.5323 126.052 11.7031 126.691 12.0448C127.332 12.3836 127.827 12.8725 128.174 13.5114C128.524 14.1475 128.699 14.9099 128.699 15.7988C128.699 16.6876 128.525 17.4515 128.178 18.0903C127.831 18.7264 127.339 19.2153 126.703 19.557C126.067 19.8958 125.316 20.0653 124.449 20.0653ZM123.482 18.0987H124.366C124.788 18.0987 125.148 18.0306 125.445 17.8945C125.745 17.7584 125.973 17.5237 126.128 17.1904C126.286 16.8571 126.366 16.3932 126.366 15.7988C126.366 15.2044 126.285 14.7405 126.124 14.4072C125.966 14.0738 125.732 13.8391 125.424 13.703C125.118 13.5669 124.743 13.4989 124.299 13.4989H123.482V18.0987Z" fill="#73B6BB"/>
<path d="M113.867 20.0653V11.5323H120.017V13.3989H116.184V14.8655H119.7V16.7321H116.184V18.1987H120V20.0653H113.867Z" fill="#73B6BB"/>
<path d="M149.639 8.64968V0.116699H151.955V3.44989H155.022V0.116699H157.338V8.64968H155.022V5.31648H151.955V8.64968H149.639Z" fill="#73B6BB"/>
<path d="M148.588 3.31653H146.238C146.221 3.12209 146.177 2.94571 146.104 2.78738C146.035 2.62906 145.938 2.49295 145.813 2.37907C145.69 2.26241 145.542 2.17352 145.367 2.11241C145.192 2.04853 144.993 2.01658 144.771 2.01658C144.382 2.01658 144.053 2.11102 143.784 2.2999C143.517 2.48878 143.314 2.75961 143.175 3.11237C143.039 3.46513 142.971 3.88873 142.971 4.38315C142.971 4.90535 143.041 5.34283 143.179 5.69559C143.321 6.04558 143.525 6.30946 143.792 6.48723C144.059 6.66222 144.379 6.74972 144.754 6.74972C144.968 6.74972 145.16 6.72333 145.329 6.67055C145.499 6.615 145.646 6.53584 145.771 6.43306C145.896 6.33029 145.997 6.20668 146.075 6.06225C146.156 5.91503 146.21 5.74976 146.238 5.56643L148.588 5.5831C148.56 5.9442 148.458 6.31224 148.283 6.68722C148.108 7.05943 147.86 7.40386 147.538 7.72051C147.218 8.03439 146.822 8.28715 146.35 8.47881C145.878 8.67047 145.329 8.7663 144.704 8.7663C143.921 8.7663 143.218 8.59825 142.596 8.26215C141.977 7.92606 141.486 7.43163 141.125 6.77888C140.767 6.12613 140.588 5.32755 140.588 4.38315C140.588 3.43319 140.771 2.63322 141.138 1.98325C141.505 1.3305 141.999 0.837465 142.621 0.504146C143.243 0.168049 143.938 0 144.704 0C145.243 0 145.739 0.0736079 146.192 0.220824C146.645 0.36804 147.042 0.583309 147.383 0.86663C147.725 1.14717 148 1.49299 148.208 1.90409C148.417 2.31518 148.543 2.78599 148.588 3.31653Z" fill="#73B6BB"/>
<path d="M133.901 8.64968H131.401L134.217 0.116699H137.384L140.2 8.64968H137.7L135.834 2.4666H135.767L133.901 8.64968ZM133.434 5.28315H138.134V7.01641H133.434V5.28315Z" fill="#73B6BB"/>
<path d="M131.151 4.38315C131.151 5.33311 130.966 6.13447 130.597 6.78722C130.227 7.43719 129.729 7.93022 129.101 8.26632C128.473 8.59964 127.773 8.7663 127.001 8.7663C126.223 8.7663 125.52 8.59825 124.893 8.26215C124.268 7.92328 123.771 7.42886 123.401 6.77888C123.034 6.12613 122.851 5.32755 122.851 4.38315C122.851 3.43319 123.034 2.63322 123.401 1.98325C123.771 1.3305 124.268 0.837465 124.893 0.504146C125.52 0.168049 126.223 0 127.001 0C127.773 0 128.473 0.168049 129.101 0.504146C129.729 0.837465 130.227 1.3305 130.597 1.98325C130.966 2.63322 131.151 3.43319 131.151 4.38315ZM128.768 4.38315C128.768 3.87206 128.7 3.44152 128.563 3.09154C128.43 2.73877 128.231 2.47212 127.968 2.29157C127.707 2.10824 127.384 2.01658 127.001 2.01658C126.618 2.01658 126.294 2.10824 126.03 2.29157C125.769 2.47212 125.57 2.73877 125.434 3.09154C125.301 3.44152 125.234 3.87206 125.234 4.38315C125.234 4.89424 125.301 5.32617 125.434 5.67893C125.57 6.02891 125.769 6.29557 126.03 6.4789C126.294 6.65944 126.618 6.74972 127.001 6.74972C127.384 6.74972 127.707 6.65944 127.968 6.4789C128.231 6.29557 128.43 6.02891 128.563 5.67893C128.7 5.32617 128.768 4.89424 128.768 4.38315Z" fill="#73B6BB"/>
<path d="M121.833 3.31653H119.484C119.467 3.12209 119.422 2.94571 119.35 2.78738C119.281 2.62906 119.184 2.49295 119.059 2.37907C118.936 2.26241 118.788 2.17352 118.613 2.11241C118.438 2.04853 118.239 2.01658 118.017 2.01658C117.628 2.01658 117.299 2.11102 117.029 2.2999C116.763 2.48878 116.56 2.75961 116.421 3.11237C116.285 3.46513 116.217 3.88873 116.217 4.38315C116.217 4.90535 116.286 5.34283 116.425 5.69559C116.567 6.04558 116.771 6.30946 117.038 6.48723C117.304 6.66222 117.625 6.74972 118 6.74972C118.214 6.74972 118.406 6.72333 118.575 6.67055C118.745 6.615 118.892 6.53584 119.017 6.43306C119.142 6.33029 119.243 6.20668 119.321 6.06225C119.402 5.91503 119.456 5.74976 119.484 5.56643L121.833 5.5831C121.806 5.9442 121.704 6.31224 121.529 6.68722C121.354 7.05943 121.106 7.40386 120.783 7.72051C120.464 8.03439 120.068 8.28715 119.596 8.47881C119.124 8.67047 118.575 8.7663 117.95 8.7663C117.167 8.7663 116.464 8.59825 115.842 8.26215C115.223 7.92606 114.732 7.43163 114.371 6.77888C114.013 6.12613 113.834 5.32755 113.834 4.38315C113.834 3.43319 114.017 2.63322 114.384 1.98325C114.75 1.3305 115.245 0.837465 115.867 0.504146C116.489 0.168049 117.184 0 117.95 0C118.489 0 118.985 0.0736079 119.438 0.220824C119.89 0.36804 120.288 0.583309 120.629 0.86663C120.971 1.14717 121.246 1.49299 121.454 1.90409C121.663 2.31518 121.789 2.78599 121.833 3.31653Z" fill="#73B6BB"/>
</svg>
